<?xml version="1.0" encoding="UTF-8"?>
<svg xmlns="http://www.w3.org/2000/svg" xmlns:xlink="http://www.w3.org/1999/xlink" width="86pt" height="58pt" viewBox="0 0 86 58" version="1.1">
<defs>
<linearGradient id="linear0" gradientUnits="userSpaceOnUse" x1="1.06" y1="16.72" x2="38.84" y2="16.72" gradientTransform="matrix(1.554812,0,0,1.558721,-1.39765,-1.636657)">
<stop offset="0.07" style="stop-color:rgb(96.078431%,76.078431%,8.235294%);stop-opacity:1;"/>
<stop offset="0.38" style="stop-color:rgb(100%,81.960784%,23.137255%);stop-opacity:1;"/>
<stop offset="0.83" style="stop-color:rgb(91.764706%,81.176471%,36.470588%);stop-opacity:1;"/>
<stop offset="1" style="stop-color:rgb(99.215686%,92.54902%,61.176471%);stop-opacity:1;"/>
</linearGradient>
<linearGradient id="linear1" gradientUnits="userSpaceOnUse" x1="23.71" y1="19.66" x2="56.05" y2="19.66" gradientTransform="matrix(1.554812,0,0,1.558721,-1.39765,-1.636657)">
<stop offset="0.18" style="stop-color:rgb(96.078431%,76.078431%,8.235294%);stop-opacity:1;"/>
<stop offset="0.38" style="stop-color:rgb(100%,81.960784%,23.137255%);stop-opacity:1;"/>
<stop offset="0.93" style="stop-color:rgb(99.215686%,90.196078%,29.411765%);stop-opacity:1;"/>
</linearGradient>
</defs>
<g id="surface1">
<path style=" stroke:none;fill-rule:nonzero;fill:url(#linear0);" d="M 0.917969 22.210938 L 15.082031 34.214844 L 30.117188 47.042969 L 32.1875 48.789062 L 58.992188 23.644531 C 58.914062 23.519531 58.898438 23.457031 58.851562 23.425781 L 50.019531 14.589844 C 49.753906 14.324219 49.601562 14.433594 49.382812 14.589844 C 47.828125 16.242188 46.101562 17.910156 44.453125 19.546875 C 44.175781 19.8125 44.234375 19.984375 44.453125 20.214844 C 45.058594 20.855469 45.636719 21.527344 46.273438 22.132812 C 46.628906 22.507812 46.582031 22.742188 46.273438 23.070312 C 41.839844 27.324219 37.394531 31.578125 32.980469 35.867188 C 32.867188 36.03125 32.679688 36.125 32.480469 36.125 C 32.285156 36.125 32.097656 36.03125 31.984375 35.867188 L 27.832031 32.359375 C 27.210938 31.828125 27.210938 31.828125 27.832031 31.238281 L 38.980469 19.890625 C 41.53125 17.285156 44.097656 14.667969 46.660156 12.09375 C 47.035156 11.738281 47.019531 11.488281 46.660156 11.160156 C 46.304688 10.832031 45.835938 10.320312 45.417969 9.914062 C 42.136719 6.703125 39.027344 3.507812 35.699219 0.328125 C 35.457031 0.121094 35.148438 0.0117188 34.828125 0.015625 L 20.464844 0.015625 C 20.128906 0.0351562 19.816406 0.175781 19.578125 0.40625 C 18.582031 1.386719 17.632812 2.417969 16.683594 3.429688 C 11.386719 8.976562 6.097656 14.53125 0.808594 20.09375 C 0.445312 20.332031 0.238281 20.746094 0.261719 21.183594 C 0.28125 21.617188 0.53125 22.011719 0.917969 22.210938 Z M 12.765625 18.75 L 23.726562 7.308594 C 23.9375 7.117188 24.207031 7.007812 24.488281 7 C 25.765625 7 27.023438 7 28.285156 7 C 29.574219 7 30.847656 7 32.140625 7 C 32.421875 7.011719 32.691406 7.121094 32.902344 7.308594 C 34.207031 8.589844 35.484375 9.914062 36.789062 11.191406 C 37.128906 11.519531 37.175781 11.738281 36.789062 12.082031 C 31.863281 16.941406 26.953125 21.816406 22.050781 26.699219 C 21.945312 26.839844 21.785156 26.917969 21.613281 26.917969 C 21.441406 26.917969 21.28125 26.839844 21.179688 26.699219 C 18.398438 24.3125 15.601562 21.9375 12.78125 19.578125 C 12.472656 19.28125 12.441406 19.09375 12.765625 18.75 Z M 12.765625 18.75 "/>
<path style=" stroke:none;fill-rule:nonzero;fill:url(#linear1);" d="M 51.203125 9.273438 C 51.484375 9.550781 51.863281 9.707031 52.257812 9.710938 L 61.121094 9.710938 C 61.457031 9.707031 61.785156 9.828125 62.039062 10.054688 C 64.859375 13.003906 67.660156 15.960938 70.449219 18.921875 C 70.761719 19.25 70.730469 19.4375 70.449219 19.71875 C 69.53125 20.527344 68.648438 21.277344 67.761719 22.164062 L 51.203125 37.332031 L 37.082031 50.207031 L 35.527344 51.765625 L 42.976562 58.140625 L 85.546875 21.621094 C 85.660156 21.507812 85.722656 21.355469 85.722656 21.199219 C 85.722656 21.039062 85.660156 20.890625 85.546875 20.777344 L 79.980469 14.886719 C 75.484375 10.105469 70.984375 5.363281 66.484375 0.65625 C 66.132812 0.242188 65.613281 0.0117188 65.070312 0.03125 L 42.230469 0.03125 C 42.351562 0.191406 42.480469 0.339844 42.617188 0.484375 C 45.480469 3.460938 48.355469 6.375 51.203125 9.273438 Z M 51.203125 9.273438 "/>
</g>
</svg>
